<mxfile host="65bd71144e">
    <diagram id="wb8SF7oNOYEL_I5Pujo5" name="Page-1">
        <mxGraphModel dx="3374" dy="830" grid="0" gridSize="10" guides="1" tooltips="1" connect="1" arrows="1" fold="1" page="1" pageScale="1" pageWidth="1600" pageHeight="1200" background="none" math="0" shadow="0">
            <root>
                <mxCell id="0"/>
                <mxCell id="1" parent="0"/>
                <mxCell id="2" value="Disease" style="whiteSpace=wrap;html=1;" parent="1" vertex="1">
                    <mxGeometry x="2285" y="545" width="120" height="60" as="geometry"/>
                </mxCell>
                <mxCell id="3" value="User" style="whiteSpace=wrap;html=1;" parent="1" vertex="1">
                    <mxGeometry x="-809" y="367" width="120" height="60" as="geometry"/>
                </mxCell>
                <mxCell id="4" value="Role" style="whiteSpace=wrap;html=1;" parent="1" vertex="1">
                    <mxGeometry x="-423" y="310.5" width="120" height="60" as="geometry"/>
                </mxCell>
                <mxCell id="5" value="Clinic" style="whiteSpace=wrap;html=1;" parent="1" vertex="1">
                    <mxGeometry x="2300" y="1862" width="120" height="60" as="geometry"/>
                </mxCell>
                <mxCell id="7" value="Medicine" style="whiteSpace=wrap;html=1;" parent="1" vertex="1">
                    <mxGeometry x="2727" y="545" width="120" height="60" as="geometry"/>
                </mxCell>
                <mxCell id="8" value="Radiation center" style="whiteSpace=wrap;html=1;" parent="1" vertex="1">
                    <mxGeometry x="2455" y="1862" width="120" height="60" as="geometry"/>
                </mxCell>
                <mxCell id="9" value="Medical Analysis Center" style="whiteSpace=wrap;html=1;" parent="1" vertex="1">
                    <mxGeometry x="2615" y="1862" width="120" height="60" as="geometry"/>
                </mxCell>
                <mxCell id="10" value="Hospital" style="whiteSpace=wrap;html=1;" parent="1" vertex="1">
                    <mxGeometry x="566" y="713" width="120" height="60" as="geometry"/>
                </mxCell>
                <mxCell id="11" value="&lt;span style=&quot;color: rgb(243, 245, 247); font-family: Inter, Helvetica, sans-serif; text-align: start; background-color: rgb(27, 27, 31);&quot;&gt;&lt;font style=&quot;font-size: 12px;&quot;&gt;Administration&lt;/font&gt;&lt;/span&gt;" style="whiteSpace=wrap;html=1;" parent="1" vertex="1">
                    <mxGeometry x="263" y="523" width="120" height="60" as="geometry"/>
                </mxCell>
                <mxCell id="12" value="&lt;span style=&quot;color: rgb(243, 245, 247); font-family: Inter, Helvetica, sans-serif; text-align: start; background-color: rgb(27, 27, 31);&quot;&gt;&lt;font style=&quot;font-size: 12px;&quot;&gt;Reception&lt;/font&gt;&lt;/span&gt;" style="whiteSpace=wrap;html=1;" parent="1" vertex="1">
                    <mxGeometry x="2135" y="1862" width="120" height="60" as="geometry"/>
                </mxCell>
                <mxCell id="13" value="&lt;span style=&quot;color: rgb(243, 245, 247); font-family: Inter, Helvetica, sans-serif; text-align: start; background-color: rgb(27, 27, 31);&quot;&gt;&lt;font style=&quot;font-size: 12px;&quot;&gt;Pharmacy&lt;/font&gt;&lt;/span&gt;" style="whiteSpace=wrap;html=1;" parent="1" vertex="1">
                    <mxGeometry x="2736" y="885" width="120" height="60" as="geometry"/>
                </mxCell>
                <mxCell id="14" value="Appoinment" style="whiteSpace=wrap;html=1;" parent="1" vertex="1">
                    <mxGeometry x="945" y="708" width="120" height="60" as="geometry"/>
                </mxCell>
                <mxCell id="15" value="LoginLog" style="whiteSpace=wrap;html=1;" parent="1" vertex="1">
                    <mxGeometry x="-642" y="602" width="120" height="60" as="geometry"/>
                </mxCell>
                <mxCell id="17" value="Patient History revord" style="whiteSpace=wrap;html=1;" parent="1" vertex="1">
                    <mxGeometry x="1293" y="439" width="120" height="60" as="geometry"/>
                </mxCell>
                <mxCell id="101" style="edgeStyle=none;html=1;exitX=1;exitY=0.5;exitDx=0;exitDy=0;fontSize=14;" parent="1" source="18" target="3" edge="1">
                    <mxGeometry relative="1" as="geometry"/>
                </mxCell>
                <mxCell id="18" value="Receptionist&amp;nbsp;" style="whiteSpace=wrap;html=1;" parent="1" vertex="1">
                    <mxGeometry x="-1055" y="317" width="120" height="60" as="geometry"/>
                </mxCell>
                <mxCell id="102" style="edgeStyle=none;html=1;exitX=1;exitY=0.5;exitDx=0;exitDy=0;fontSize=14;" parent="1" source="19" target="3" edge="1">
                    <mxGeometry relative="1" as="geometry"/>
                </mxCell>
                <mxCell id="19" value="Doctor" style="whiteSpace=wrap;html=1;" parent="1" vertex="1">
                    <mxGeometry x="-1055" y="227" width="120" height="60" as="geometry"/>
                </mxCell>
                <mxCell id="103" style="edgeStyle=none;html=1;exitX=1;exitY=0.5;exitDx=0;exitDy=0;fontSize=14;" parent="1" source="20" target="3" edge="1">
                    <mxGeometry relative="1" as="geometry"/>
                </mxCell>
                <mxCell id="20" value="Patient" style="whiteSpace=wrap;html=1;" parent="1" vertex="1">
                    <mxGeometry x="-1055" y="135" width="120" height="60" as="geometry"/>
                </mxCell>
                <mxCell id="104" style="edgeStyle=none;html=1;exitX=1;exitY=0.5;exitDx=0;exitDy=0;fontSize=14;" parent="1" source="21" target="3" edge="1">
                    <mxGeometry relative="1" as="geometry"/>
                </mxCell>
                <mxCell id="21" value="ManagerAdmin" style="whiteSpace=wrap;html=1;" parent="1" vertex="1">
                    <mxGeometry x="-1055" y="406" width="120" height="60" as="geometry"/>
                </mxCell>
                <mxCell id="105" style="edgeStyle=none;html=1;exitX=1;exitY=0.5;exitDx=0;exitDy=0;fontSize=14;" parent="1" source="22" target="3" edge="1">
                    <mxGeometry relative="1" as="geometry"/>
                </mxCell>
                <mxCell id="22" value="HospitalAdmin" style="whiteSpace=wrap;html=1;" parent="1" vertex="1">
                    <mxGeometry x="-1055" y="500" width="120" height="60" as="geometry"/>
                </mxCell>
                <mxCell id="106" style="edgeStyle=none;html=1;exitX=1;exitY=0.5;exitDx=0;exitDy=0;fontSize=14;" parent="1" source="23" target="3" edge="1">
                    <mxGeometry relative="1" as="geometry"/>
                </mxCell>
                <mxCell id="23" value="Pharmacist" style="whiteSpace=wrap;html=1;" parent="1" vertex="1">
                    <mxGeometry x="-1055" y="595" width="120" height="60" as="geometry"/>
                </mxCell>
                <mxCell id="107" style="edgeStyle=none;html=1;exitX=1;exitY=0.5;exitDx=0;exitDy=0;fontSize=14;" parent="1" source="24" target="3" edge="1">
                    <mxGeometry relative="1" as="geometry"/>
                </mxCell>
                <mxCell id="24" value="MedicalCenterAnalysist&amp;nbsp;" style="whiteSpace=wrap;html=1;" parent="1" vertex="1">
                    <mxGeometry x="-1069" y="677" width="148" height="60" as="geometry"/>
                </mxCell>
                <mxCell id="108" style="edgeStyle=none;html=1;exitX=1;exitY=0.5;exitDx=0;exitDy=0;fontSize=14;" parent="1" source="25" target="3" edge="1">
                    <mxGeometry relative="1" as="geometry"/>
                </mxCell>
                <mxCell id="25" value="RadiationCenterAnalysist&amp;nbsp;" style="whiteSpace=wrap;html=1;" parent="1" vertex="1">
                    <mxGeometry x="-1069" y="767" width="148" height="60" as="geometry"/>
                </mxCell>
                <mxCell id="27" value="&lt;span style=&quot;color: rgb(255, 255, 255); font-family: Inter, Helvetica, sans-serif; font-size: 12.8px;&quot;&gt;EffectiveSubstance&lt;/span&gt;" style="whiteSpace=wrap;html=1;" parent="1" vertex="1">
                    <mxGeometry x="2519" y="281" width="120" height="60" as="geometry"/>
                </mxCell>
                <mxCell id="28" value="&lt;font style=&quot;font-size: 12px;&quot;&gt;Disease&lt;/font&gt;&lt;span style=&quot;color: rgb(243, 245, 247); font-family: Inter, Helvetica, sans-serif; text-align: start; background-color: rgb(27, 27, 31);&quot;&gt;&lt;font style=&quot;font-size: 12px;&quot;&gt;Symptoms&lt;/font&gt;&lt;span style=&quot;font-size: 16px;&quot;&gt;&amp;nbsp;&lt;/span&gt;&lt;/span&gt;" style="whiteSpace=wrap;html=1;" parent="1" vertex="1">
                    <mxGeometry x="1991" y="309" width="120" height="60" as="geometry"/>
                </mxCell>
                <mxCell id="29" value="SideEffects" style="whiteSpace=wrap;html=1;fontSize=12;" parent="1" vertex="1">
                    <mxGeometry x="2411" y="732" width="120" height="60" as="geometry"/>
                </mxCell>
                <mxCell id="30" value="&lt;span style=&quot;color: rgb(243, 245, 247); font-family: Inter, Helvetica, sans-serif; text-align: start; background-color: rgb(27, 27, 31);&quot;&gt;&lt;font style=&quot;font-size: 14px;&quot;&gt;causes&amp;nbsp;&lt;/font&gt;&lt;/span&gt;" style="rhombus;whiteSpace=wrap;html=1;fontSize=12;" parent="1" vertex="1">
                    <mxGeometry x="2146" y="411" width="80" height="80" as="geometry"/>
                </mxCell>
                <mxCell id="32" value="" style="endArrow=none;html=1;fontSize=12;shape=link;" parent="1" source="2" target="30" edge="1">
                    <mxGeometry width="50" height="50" relative="1" as="geometry">
                        <mxPoint x="2212" y="545" as="sourcePoint"/>
                        <mxPoint x="2081" y="556" as="targetPoint"/>
                    </mxGeometry>
                </mxCell>
                <mxCell id="47" value="m" style="edgeLabel;html=1;align=center;verticalAlign=middle;resizable=0;points=[];fontSize=14;" parent="32" vertex="1" connectable="0">
                    <mxGeometry x="-0.2123" y="-4" relative="1" as="geometry">
                        <mxPoint x="-13" y="-5" as="offset"/>
                    </mxGeometry>
                </mxCell>
                <mxCell id="33" value="" style="endArrow=none;html=1;fontSize=12;shape=link;" parent="1" source="41" target="7" edge="1">
                    <mxGeometry width="50" height="50" relative="1" as="geometry">
                        <mxPoint x="3004" y="515" as="sourcePoint"/>
                        <mxPoint x="2873" y="526" as="targetPoint"/>
                    </mxGeometry>
                </mxCell>
                <mxCell id="52" value="m" style="edgeLabel;html=1;align=center;verticalAlign=middle;resizable=0;points=[];fontSize=14;" parent="33" vertex="1" connectable="0">
                    <mxGeometry x="0.4501" y="3" relative="1" as="geometry">
                        <mxPoint as="offset"/>
                    </mxGeometry>
                </mxCell>
                <mxCell id="34" value="" style="endArrow=none;html=1;fontSize=12;shape=link;" parent="1" source="28" target="30" edge="1">
                    <mxGeometry width="50" height="50" relative="1" as="geometry">
                        <mxPoint x="2092" y="434" as="sourcePoint"/>
                        <mxPoint x="1961" y="445" as="targetPoint"/>
                    </mxGeometry>
                </mxCell>
                <mxCell id="48" value="m" style="edgeLabel;html=1;align=center;verticalAlign=middle;resizable=0;points=[];fontSize=14;" parent="34" vertex="1" connectable="0">
                    <mxGeometry x="-0.3828" y="-1" relative="1" as="geometry">
                        <mxPoint as="offset"/>
                    </mxGeometry>
                </mxCell>
                <mxCell id="35" value="" style="endArrow=none;html=1;fontSize=12;shape=link;" parent="1" source="27" target="36" edge="1">
                    <mxGeometry width="50" height="50" relative="1" as="geometry">
                        <mxPoint x="2519" y="457" as="sourcePoint"/>
                        <mxPoint x="2495" y="455" as="targetPoint"/>
                    </mxGeometry>
                </mxCell>
                <mxCell id="54" value="m" style="edgeLabel;html=1;align=center;verticalAlign=middle;resizable=0;points=[];fontSize=14;" parent="35" vertex="1" connectable="0">
                    <mxGeometry x="0.2116" relative="1" as="geometry">
                        <mxPoint as="offset"/>
                    </mxGeometry>
                </mxCell>
                <mxCell id="36" value="&lt;span style=&quot;color: rgb(243, 245, 247); font-family: Inter, Helvetica, sans-serif; text-align: start; background-color: rgb(27, 27, 31);&quot;&gt;&lt;font style=&quot;font-size: 14px;&quot;&gt;Ocured&lt;/font&gt;&lt;/span&gt;" style="rhombus;whiteSpace=wrap;html=1;fontSize=12;" parent="1" vertex="1">
                    <mxGeometry x="2436" y="390" width="80" height="80" as="geometry"/>
                </mxCell>
                <mxCell id="37" value="" style="endArrow=none;html=1;fontSize=12;shape=link;" parent="1" source="36" target="2" edge="1">
                    <mxGeometry width="50" height="50" relative="1" as="geometry">
                        <mxPoint x="2561" y="577" as="sourcePoint"/>
                        <mxPoint x="2430" y="588" as="targetPoint"/>
                    </mxGeometry>
                </mxCell>
                <mxCell id="55" value="m" style="edgeLabel;html=1;align=center;verticalAlign=middle;resizable=0;points=[];fontSize=14;" parent="37" vertex="1" connectable="0">
                    <mxGeometry x="0.2566" y="-2" relative="1" as="geometry">
                        <mxPoint as="offset"/>
                    </mxGeometry>
                </mxCell>
                <mxCell id="38" value="&lt;span style=&quot;color: rgb(243, 245, 247); font-family: Inter, Helvetica, sans-serif; text-align: start; background-color: rgb(27, 27, 31);&quot;&gt;&lt;font style=&quot;font-size: 14px;&quot;&gt;has&lt;/font&gt;&lt;/span&gt;" style="rhombus;whiteSpace=wrap;html=1;fontSize=12;" parent="1" vertex="1">
                    <mxGeometry x="2633" y="386" width="80" height="80" as="geometry"/>
                </mxCell>
                <mxCell id="39" value="" style="endArrow=none;html=1;fontSize=12;shape=link;" parent="1" source="27" target="38" edge="1">
                    <mxGeometry width="50" height="50" relative="1" as="geometry">
                        <mxPoint x="2581" y="477" as="sourcePoint"/>
                        <mxPoint x="2450" y="488" as="targetPoint"/>
                    </mxGeometry>
                </mxCell>
                <mxCell id="50" value="1" style="edgeLabel;html=1;align=center;verticalAlign=middle;resizable=0;points=[];fontSize=14;" parent="39" vertex="1" connectable="0">
                    <mxGeometry x="-0.4912" y="1" relative="1" as="geometry">
                        <mxPoint x="4" y="10" as="offset"/>
                    </mxGeometry>
                </mxCell>
                <mxCell id="40" value="" style="endArrow=none;html=1;fontSize=12;shape=link;" parent="1" source="38" target="7" edge="1">
                    <mxGeometry width="50" height="50" relative="1" as="geometry">
                        <mxPoint x="2667" y="548" as="sourcePoint"/>
                        <mxPoint x="2536" y="559" as="targetPoint"/>
                    </mxGeometry>
                </mxCell>
                <mxCell id="49" value="m" style="edgeLabel;html=1;align=center;verticalAlign=middle;resizable=0;points=[];fontSize=14;" parent="40" vertex="1" connectable="0">
                    <mxGeometry x="0.3012" y="4" relative="1" as="geometry">
                        <mxPoint x="-5" y="2" as="offset"/>
                    </mxGeometry>
                </mxCell>
                <mxCell id="41" value="&lt;span style=&quot;color: rgb(243, 245, 247); font-family: Inter, Helvetica, sans-serif; text-align: start; background-color: rgb(27, 27, 31);&quot;&gt;&lt;font style=&quot;font-size: 14px;&quot;&gt;causes&amp;nbsp;&lt;/font&gt;&lt;/span&gt;" style="rhombus;whiteSpace=wrap;html=1;fontSize=12;" parent="1" vertex="1">
                    <mxGeometry x="2601" y="617" width="80" height="80" as="geometry"/>
                </mxCell>
                <mxCell id="42" value="" style="endArrow=none;html=1;fontSize=12;" parent="1" source="29" target="41" edge="1">
                    <mxGeometry width="50" height="50" relative="1" as="geometry">
                        <mxPoint x="2850" y="374" as="sourcePoint"/>
                        <mxPoint x="2719" y="385" as="targetPoint"/>
                    </mxGeometry>
                </mxCell>
                <mxCell id="53" value="m" style="edgeLabel;html=1;align=center;verticalAlign=middle;resizable=0;points=[];fontSize=14;" parent="42" vertex="1" connectable="0">
                    <mxGeometry x="-0.3017" y="1" relative="1" as="geometry">
                        <mxPoint as="offset"/>
                    </mxGeometry>
                </mxCell>
                <mxCell id="43" value="" style="endArrow=none;html=1;fontSize=12;" parent="1" source="14" target="133" edge="1">
                    <mxGeometry width="50" height="50" relative="1" as="geometry">
                        <mxPoint x="759.9984030418236" y="328.0015969581749" as="sourcePoint"/>
                        <mxPoint x="833.7069798657712" y="424.34000000000003" as="targetPoint"/>
                    </mxGeometry>
                </mxCell>
                <mxCell id="176" value="m" style="edgeLabel;html=1;align=center;verticalAlign=middle;resizable=0;points=[];fontSize=14;" parent="43" vertex="1" connectable="0">
                    <mxGeometry x="-0.618" y="-1" relative="1" as="geometry">
                        <mxPoint as="offset"/>
                    </mxGeometry>
                </mxCell>
                <mxCell id="44" value="&lt;span style=&quot;color: rgb(243, 245, 247); font-family: Inter, Helvetica, sans-serif; text-align: start; background-color: rgb(27, 27, 31);&quot;&gt;&lt;font style=&quot;font-size: 14px;&quot;&gt;has&lt;/font&gt;&lt;/span&gt;" style="rhombus;whiteSpace=wrap;html=1;fontSize=12;" parent="1" vertex="1">
                    <mxGeometry x="2752" y="697" width="80" height="80" as="geometry"/>
                </mxCell>
                <mxCell id="45" value="" style="endArrow=none;html=1;fontSize=12;shape=link;" parent="1" source="44" target="13" edge="1">
                    <mxGeometry width="50" height="50" relative="1" as="geometry">
                        <mxPoint x="2792.9984030418236" y="742.8315969581748" as="sourcePoint"/>
                        <mxPoint x="2866.7069798657712" y="839.1700000000002" as="targetPoint"/>
                    </mxGeometry>
                </mxCell>
                <mxCell id="57" value="m" style="edgeLabel;html=1;align=center;verticalAlign=middle;resizable=0;points=[];fontSize=14;" parent="45" vertex="1" connectable="0">
                    <mxGeometry x="0.2575" y="4" relative="1" as="geometry">
                        <mxPoint x="-2" as="offset"/>
                    </mxGeometry>
                </mxCell>
                <mxCell id="46" value="" style="endArrow=none;html=1;fontSize=12;shape=link;" parent="1" source="7" target="44" edge="1">
                    <mxGeometry width="50" height="50" relative="1" as="geometry">
                        <mxPoint x="2821.9984030418236" y="664.6615969581748" as="sourcePoint"/>
                        <mxPoint x="2895.7069798657712" y="761.0000000000001" as="targetPoint"/>
                    </mxGeometry>
                </mxCell>
                <mxCell id="56" value="m" style="edgeLabel;html=1;align=center;verticalAlign=middle;resizable=0;points=[];fontSize=14;" parent="46" vertex="1" connectable="0">
                    <mxGeometry x="-0.7622" y="-3" relative="1" as="geometry">
                        <mxPoint x="4" y="13" as="offset"/>
                    </mxGeometry>
                </mxCell>
                <mxCell id="58" value="&lt;span style=&quot;color: rgb(243, 245, 247); font-family: Inter, Helvetica, sans-serif; text-align: start; background-color: rgb(27, 27, 31);&quot;&gt;&lt;font style=&quot;font-size: 12px;&quot;&gt;Pharmacy&lt;/font&gt;&lt;/span&gt;" style="whiteSpace=wrap;html=1;" parent="1" vertex="1">
                    <mxGeometry x="2790" y="1862" width="120" height="60" as="geometry"/>
                </mxCell>
                <mxCell id="59" value="Clinic" style="whiteSpace=wrap;html=1;" parent="1" vertex="1">
                    <mxGeometry x="377" y="1324" width="120" height="60" as="geometry"/>
                </mxCell>
                <mxCell id="60" value="Radiation center" style="whiteSpace=wrap;html=1;" parent="1" vertex="1">
                    <mxGeometry x="532" y="1324" width="120" height="60" as="geometry"/>
                </mxCell>
                <mxCell id="61" value="Medical Analysis Center" style="whiteSpace=wrap;html=1;" parent="1" vertex="1">
                    <mxGeometry x="692" y="1324" width="120" height="60" as="geometry"/>
                </mxCell>
                <mxCell id="62" value="&lt;span style=&quot;color: rgb(243, 245, 247); font-family: Inter, Helvetica, sans-serif; text-align: start; background-color: rgb(27, 27, 31);&quot;&gt;&lt;font style=&quot;font-size: 12px;&quot;&gt;Reception&lt;/font&gt;&lt;/span&gt;" style="whiteSpace=wrap;html=1;" parent="1" vertex="1">
                    <mxGeometry x="200" y="1324" width="120" height="60" as="geometry"/>
                </mxCell>
                <mxCell id="63" value="&lt;span style=&quot;color: rgb(243, 245, 247); font-family: Inter, Helvetica, sans-serif; text-align: start; background-color: rgb(27, 27, 31);&quot;&gt;&lt;font style=&quot;font-size: 12px;&quot;&gt;Pharmacy&lt;/font&gt;&lt;/span&gt;" style="whiteSpace=wrap;html=1;" parent="1" vertex="1">
                    <mxGeometry x="867" y="1324" width="120" height="60" as="geometry"/>
                </mxCell>
                <mxCell id="64" value="Hospital" style="whiteSpace=wrap;html=1;" parent="1" vertex="1">
                    <mxGeometry x="2488" y="1576" width="120" height="60" as="geometry"/>
                </mxCell>
                <mxCell id="65" value="&lt;span style=&quot;color: rgb(243, 245, 247); font-family: Inter, Helvetica, sans-serif; text-align: start; background-color: rgb(27, 27, 31);&quot;&gt;&lt;font style=&quot;font-size: 12px;&quot;&gt;Administration&lt;/font&gt;&lt;/span&gt;" style="whiteSpace=wrap;html=1;" parent="1" vertex="1">
                    <mxGeometry x="2485" y="1316" width="120" height="60" as="geometry"/>
                </mxCell>
                <mxCell id="66" value="has" style="rhombus;whiteSpace=wrap;html=1;fontSize=14;" parent="1" vertex="1">
                    <mxGeometry x="2509.5" y="1436" width="71" height="67" as="geometry"/>
                </mxCell>
                <mxCell id="67" value="" style="endArrow=none;html=1;fontSize=12;shape=link;" parent="1" source="65" target="66" edge="1">
                    <mxGeometry width="50" height="50" relative="1" as="geometry">
                        <mxPoint x="2369.2884030418236" y="1346.6615969581749" as="sourcePoint"/>
                        <mxPoint x="2442.996979865771" y="1443.0000000000002" as="targetPoint"/>
                    </mxGeometry>
                </mxCell>
                <mxCell id="70" value="1" style="edgeLabel;html=1;align=center;verticalAlign=middle;resizable=0;points=[];fontSize=14;" parent="67" vertex="1" connectable="0">
                    <mxGeometry x="-0.4" y="-3" relative="1" as="geometry">
                        <mxPoint x="14" y="2" as="offset"/>
                    </mxGeometry>
                </mxCell>
                <mxCell id="68" value="" style="endArrow=none;html=1;fontSize=12;" parent="1" source="66" target="64" edge="1">
                    <mxGeometry width="50" height="50" relative="1" as="geometry">
                        <mxPoint x="2393.9984030418236" y="1463.001596958175" as="sourcePoint"/>
                        <mxPoint x="2467.7069798657712" y="1559.3400000000001" as="targetPoint"/>
                    </mxGeometry>
                </mxCell>
                <mxCell id="69" value="m" style="edgeLabel;html=1;align=center;verticalAlign=middle;resizable=0;points=[];fontSize=14;" parent="68" vertex="1" connectable="0">
                    <mxGeometry x="0.3506" y="4" relative="1" as="geometry">
                        <mxPoint x="7" y="3" as="offset"/>
                    </mxGeometry>
                </mxCell>
                <mxCell id="71" value="" style="endArrow=none;html=1;fontSize=12;" parent="1" source="9" target="81" edge="1">
                    <mxGeometry width="50" height="50" relative="1" as="geometry">
                        <mxPoint x="2128.9984030418236" y="1456.001596958175" as="sourcePoint"/>
                        <mxPoint x="2202.7069798657712" y="1552.3400000000001" as="targetPoint"/>
                    </mxGeometry>
                </mxCell>
                <mxCell id="99" value="m" style="edgeLabel;html=1;align=center;verticalAlign=middle;resizable=0;points=[];fontSize=14;" parent="71" vertex="1" connectable="0">
                    <mxGeometry x="0.2809" y="1" relative="1" as="geometry">
                        <mxPoint as="offset"/>
                    </mxGeometry>
                </mxCell>
                <mxCell id="72" value="" style="endArrow=none;html=1;fontSize=12;shape=link;" parent="1" source="80" target="64" edge="1">
                    <mxGeometry width="50" height="50" relative="1" as="geometry">
                        <mxPoint x="2138.9984030418236" y="1466.001596958175" as="sourcePoint"/>
                        <mxPoint x="2212.7069798657712" y="1562.3400000000001" as="targetPoint"/>
                    </mxGeometry>
                </mxCell>
                <mxCell id="95" value="1" style="edgeLabel;html=1;align=center;verticalAlign=middle;resizable=0;points=[];fontSize=14;" parent="72" vertex="1" connectable="0">
                    <mxGeometry x="0.4229" y="2" relative="1" as="geometry">
                        <mxPoint as="offset"/>
                    </mxGeometry>
                </mxCell>
                <mxCell id="77" value="has" style="rhombus;whiteSpace=wrap;html=1;fontSize=14;" parent="1" vertex="1">
                    <mxGeometry x="2767.5" y="1696" width="71" height="67" as="geometry"/>
                </mxCell>
                <mxCell id="78" value="has" style="rhombus;whiteSpace=wrap;html=1;fontSize=14;" parent="1" vertex="1">
                    <mxGeometry x="2499" y="1694" width="71" height="67" as="geometry"/>
                </mxCell>
                <mxCell id="79" value="has" style="rhombus;whiteSpace=wrap;html=1;fontSize=14;" parent="1" vertex="1">
                    <mxGeometry x="2368" y="1694" width="71" height="67" as="geometry"/>
                </mxCell>
                <mxCell id="80" value="has" style="rhombus;whiteSpace=wrap;html=1;fontSize=14;" parent="1" vertex="1">
                    <mxGeometry x="2237" y="1694" width="71" height="67" as="geometry"/>
                </mxCell>
                <mxCell id="81" value="has" style="rhombus;whiteSpace=wrap;html=1;fontSize=14;" parent="1" vertex="1">
                    <mxGeometry x="2635" y="1699" width="71" height="67" as="geometry"/>
                </mxCell>
                <mxCell id="83" value="" style="endArrow=none;html=1;fontSize=12;" parent="1" source="8" target="78" edge="1">
                    <mxGeometry width="50" height="50" relative="1" as="geometry">
                        <mxPoint x="2138.9984030418236" y="1466.001596958175" as="sourcePoint"/>
                        <mxPoint x="2212.7069798657712" y="1562.3400000000001" as="targetPoint"/>
                    </mxGeometry>
                </mxCell>
                <mxCell id="98" value="m" style="edgeLabel;html=1;align=center;verticalAlign=middle;resizable=0;points=[];fontSize=14;" parent="83" vertex="1" connectable="0">
                    <mxGeometry x="0.2594" y="2" relative="1" as="geometry">
                        <mxPoint as="offset"/>
                    </mxGeometry>
                </mxCell>
                <mxCell id="84" value="" style="endArrow=none;html=1;fontSize=12;" parent="1" source="5" target="79" edge="1">
                    <mxGeometry width="50" height="50" relative="1" as="geometry">
                        <mxPoint x="2148.9984030418236" y="1476.001596958175" as="sourcePoint"/>
                        <mxPoint x="2222.7069798657712" y="1572.3400000000001" as="targetPoint"/>
                    </mxGeometry>
                </mxCell>
                <mxCell id="97" value="m" style="edgeLabel;html=1;align=center;verticalAlign=middle;resizable=0;points=[];fontSize=14;" parent="84" vertex="1" connectable="0">
                    <mxGeometry x="0.3062" y="3" relative="1" as="geometry">
                        <mxPoint as="offset"/>
                    </mxGeometry>
                </mxCell>
                <mxCell id="85" value="" style="endArrow=none;html=1;fontSize=12;shape=link;" parent="1" source="64" target="77" edge="1">
                    <mxGeometry width="50" height="50" relative="1" as="geometry">
                        <mxPoint x="2158.9984030418236" y="1486.001596958175" as="sourcePoint"/>
                        <mxPoint x="2232.7069798657712" y="1582.3400000000001" as="targetPoint"/>
                    </mxGeometry>
                </mxCell>
                <mxCell id="91" value="1" style="edgeLabel;html=1;align=center;verticalAlign=middle;resizable=0;points=[];fontSize=14;" parent="85" vertex="1" connectable="0">
                    <mxGeometry x="0.3136" y="-2" relative="1" as="geometry">
                        <mxPoint x="-20" y="-23" as="offset"/>
                    </mxGeometry>
                </mxCell>
                <mxCell id="86" value="" style="endArrow=none;html=1;fontSize=12;" parent="1" source="80" target="12" edge="1">
                    <mxGeometry width="50" height="50" relative="1" as="geometry">
                        <mxPoint x="2168.9984030418236" y="1496.001596958175" as="sourcePoint"/>
                        <mxPoint x="2242.7069798657712" y="1592.3400000000001" as="targetPoint"/>
                    </mxGeometry>
                </mxCell>
                <mxCell id="96" value="m" style="edgeLabel;html=1;align=center;verticalAlign=middle;resizable=0;points=[];fontSize=14;" parent="86" vertex="1" connectable="0">
                    <mxGeometry x="-0.2647" y="-1" relative="1" as="geometry">
                        <mxPoint as="offset"/>
                    </mxGeometry>
                </mxCell>
                <mxCell id="87" value="" style="endArrow=none;html=1;fontSize=12;shape=link;" parent="1" source="64" target="81" edge="1">
                    <mxGeometry width="50" height="50" relative="1" as="geometry">
                        <mxPoint x="2178.9984030418236" y="1506.001596958175" as="sourcePoint"/>
                        <mxPoint x="2252.7069798657712" y="1602.3400000000001" as="targetPoint"/>
                    </mxGeometry>
                </mxCell>
                <mxCell id="92" value="1" style="edgeLabel;html=1;align=center;verticalAlign=middle;resizable=0;points=[];fontSize=14;" parent="87" vertex="1" connectable="0">
                    <mxGeometry x="0.2848" y="3" relative="1" as="geometry">
                        <mxPoint y="-8" as="offset"/>
                    </mxGeometry>
                </mxCell>
                <mxCell id="88" value="" style="endArrow=none;html=1;fontSize=12;shape=link;" parent="1" source="64" target="78" edge="1">
                    <mxGeometry width="50" height="50" relative="1" as="geometry">
                        <mxPoint x="2188.9984030418236" y="1516.001596958175" as="sourcePoint"/>
                        <mxPoint x="2262.7069798657712" y="1612.3400000000001" as="targetPoint"/>
                    </mxGeometry>
                </mxCell>
                <mxCell id="93" value="1" style="edgeLabel;html=1;align=center;verticalAlign=middle;resizable=0;points=[];fontSize=14;" parent="88" vertex="1" connectable="0">
                    <mxGeometry x="0.3335" y="2" relative="1" as="geometry">
                        <mxPoint as="offset"/>
                    </mxGeometry>
                </mxCell>
                <mxCell id="89" value="" style="endArrow=none;html=1;fontSize=12;shape=link;" parent="1" source="64" target="79" edge="1">
                    <mxGeometry width="50" height="50" relative="1" as="geometry">
                        <mxPoint x="2198.9984030418236" y="1526.001596958175" as="sourcePoint"/>
                        <mxPoint x="2272.7069798657712" y="1622.3400000000001" as="targetPoint"/>
                    </mxGeometry>
                </mxCell>
                <mxCell id="94" value="1" style="edgeLabel;html=1;align=center;verticalAlign=middle;resizable=0;points=[];fontSize=14;" parent="89" vertex="1" connectable="0">
                    <mxGeometry x="-0.4189" y="1" relative="1" as="geometry">
                        <mxPoint as="offset"/>
                    </mxGeometry>
                </mxCell>
                <mxCell id="90" value="" style="endArrow=none;html=1;fontSize=12;" parent="1" source="77" target="58" edge="1">
                    <mxGeometry width="50" height="50" relative="1" as="geometry">
                        <mxPoint x="2208.9984030418236" y="1536.001596958175" as="sourcePoint"/>
                        <mxPoint x="2282.7069798657712" y="1632.3400000000001" as="targetPoint"/>
                    </mxGeometry>
                </mxCell>
                <mxCell id="100" value="m" style="edgeLabel;html=1;align=center;verticalAlign=middle;resizable=0;points=[];fontSize=14;" parent="90" vertex="1" connectable="0">
                    <mxGeometry x="-0.1844" y="4" relative="1" as="geometry">
                        <mxPoint as="offset"/>
                    </mxGeometry>
                </mxCell>
                <mxCell id="109" value="has" style="rhombus;whiteSpace=wrap;html=1;fontSize=14;" parent="1" vertex="1">
                    <mxGeometry x="-699" y="477" width="70" height="67" as="geometry"/>
                </mxCell>
                <mxCell id="110" value="In" style="rhombus;whiteSpace=wrap;html=1;fontSize=14;" parent="1" vertex="1">
                    <mxGeometry x="-578" y="307" width="70" height="67" as="geometry"/>
                </mxCell>
                <mxCell id="111" value="" style="endArrow=none;html=1;fontSize=12;" parent="1" source="118" target="124" edge="1">
                    <mxGeometry width="50" height="50" relative="1" as="geometry">
                        <mxPoint x="466.9984030418236" y="336.0015969581749" as="sourcePoint"/>
                        <mxPoint x="540.7069798657712" y="432.34000000000003" as="targetPoint"/>
                    </mxGeometry>
                </mxCell>
                <mxCell id="183" value="m" style="edgeLabel;html=1;align=center;verticalAlign=middle;resizable=0;points=[];fontSize=14;" parent="111" vertex="1" connectable="0">
                    <mxGeometry x="-0.4933" y="1" relative="1" as="geometry">
                        <mxPoint as="offset"/>
                    </mxGeometry>
                </mxCell>
                <mxCell id="112" value="" style="endArrow=none;html=1;fontSize=12;" parent="1" source="109" target="15" edge="1">
                    <mxGeometry width="50" height="50" relative="1" as="geometry">
                        <mxPoint x="-62.00159695817638" y="327.0015969581749" as="sourcePoint"/>
                        <mxPoint x="11.706979865771245" y="423.34000000000003" as="targetPoint"/>
                    </mxGeometry>
                </mxCell>
                <mxCell id="113" value="" style="endArrow=none;html=1;fontSize=12;" parent="1" source="3" target="109" edge="1">
                    <mxGeometry width="50" height="50" relative="1" as="geometry">
                        <mxPoint x="-52.00159695817638" y="337.0015969581749" as="sourcePoint"/>
                        <mxPoint x="21.706979865771245" y="433.34000000000003" as="targetPoint"/>
                    </mxGeometry>
                </mxCell>
                <mxCell id="114" value="" style="endArrow=none;html=1;fontSize=12;" parent="1" source="110" target="3" edge="1">
                    <mxGeometry width="50" height="50" relative="1" as="geometry">
                        <mxPoint x="-42.00159695817638" y="347.0015969581749" as="sourcePoint"/>
                        <mxPoint x="31.706979865771245" y="443.34000000000003" as="targetPoint"/>
                    </mxGeometry>
                </mxCell>
                <mxCell id="115" value="" style="endArrow=none;html=1;fontSize=12;" parent="1" source="4" target="110" edge="1">
                    <mxGeometry width="50" height="50" relative="1" as="geometry">
                        <mxPoint x="507.9984030418236" y="272.0015969581749" as="sourcePoint"/>
                        <mxPoint x="581.7069798657712" y="368.34000000000003" as="targetPoint"/>
                    </mxGeometry>
                </mxCell>
                <mxCell id="116" value="Receptionist&amp;nbsp;" style="whiteSpace=wrap;html=1;" parent="1" vertex="1">
                    <mxGeometry x="202" y="1626" width="120" height="60" as="geometry"/>
                </mxCell>
                <mxCell id="117" value="Doctor" style="whiteSpace=wrap;html=1;" parent="1" vertex="1">
                    <mxGeometry x="380" y="1626" width="120" height="60" as="geometry"/>
                </mxCell>
                <mxCell id="118" value="ManagerAdmin" style="whiteSpace=wrap;html=1;" parent="1" vertex="1">
                    <mxGeometry x="258" y="234" width="120" height="60" as="geometry"/>
                </mxCell>
                <mxCell id="119" value="HospitalAdmin" style="whiteSpace=wrap;html=1;" parent="1" vertex="1">
                    <mxGeometry x="178" y="712" width="120" height="60" as="geometry"/>
                </mxCell>
                <mxCell id="120" value="Pharmacist" style="whiteSpace=wrap;html=1;" parent="1" vertex="1">
                    <mxGeometry x="876" y="1623" width="120" height="60" as="geometry"/>
                </mxCell>
                <mxCell id="121" value="MedicalCenterAnalysist&amp;nbsp;" style="whiteSpace=wrap;html=1;" parent="1" vertex="1">
                    <mxGeometry x="692" y="1623" width="148" height="60" as="geometry"/>
                </mxCell>
                <mxCell id="122" value="RadiationCenterAnalysist&amp;nbsp;" style="whiteSpace=wrap;html=1;" parent="1" vertex="1">
                    <mxGeometry x="525" y="1626" width="148" height="60" as="geometry"/>
                </mxCell>
                <mxCell id="123" value="Patient" style="whiteSpace=wrap;html=1;" parent="1" vertex="1">
                    <mxGeometry x="1293" y="708" width="120" height="60" as="geometry"/>
                </mxCell>
                <mxCell id="124" value="has" style="rhombus;whiteSpace=wrap;html=1;fontSize=14;" parent="1" vertex="1">
                    <mxGeometry x="287" y="369" width="62" height="56" as="geometry"/>
                </mxCell>
                <mxCell id="125" value="" style="endArrow=none;html=1;fontSize=12;shape=link;" parent="1" source="124" target="11" edge="1">
                    <mxGeometry width="50" height="50" relative="1" as="geometry">
                        <mxPoint x="466.9984030418236" y="336.0015969581749" as="sourcePoint"/>
                        <mxPoint x="540.7069798657712" y="432.34000000000003" as="targetPoint"/>
                    </mxGeometry>
                </mxCell>
                <mxCell id="182" value="1" style="edgeLabel;html=1;align=center;verticalAlign=middle;resizable=0;points=[];fontSize=14;" parent="125" vertex="1" connectable="0">
                    <mxGeometry x="0.2719" y="1" relative="1" as="geometry">
                        <mxPoint as="offset"/>
                    </mxGeometry>
                </mxCell>
                <mxCell id="126" value="has" style="rhombus;whiteSpace=wrap;html=1;fontSize=14;" parent="1" vertex="1">
                    <mxGeometry x="401" y="710" width="62" height="56" as="geometry"/>
                </mxCell>
                <mxCell id="127" value="" style="endArrow=none;html=1;fontSize=12;shape=link;" parent="1" source="126" target="10" edge="1">
                    <mxGeometry width="50" height="50" relative="1" as="geometry">
                        <mxPoint x="769.9984030418236" y="338.0015969581749" as="sourcePoint"/>
                        <mxPoint x="843.7069798657712" y="434.34000000000003" as="targetPoint"/>
                    </mxGeometry>
                </mxCell>
                <mxCell id="179" value="1" style="edgeLabel;html=1;align=center;verticalAlign=middle;resizable=0;points=[];fontSize=14;" parent="127" vertex="1" connectable="0">
                    <mxGeometry x="0.4027" y="1" relative="1" as="geometry">
                        <mxPoint as="offset"/>
                    </mxGeometry>
                </mxCell>
                <mxCell id="128" value="" style="endArrow=none;html=1;fontSize=12;shape=link;" parent="1" source="119" target="126" edge="1">
                    <mxGeometry width="50" height="50" relative="1" as="geometry">
                        <mxPoint x="769.9984030418236" y="338.0015969581749" as="sourcePoint"/>
                        <mxPoint x="843.7069798657712" y="434.34000000000003" as="targetPoint"/>
                    </mxGeometry>
                </mxCell>
                <mxCell id="180" value="m" style="edgeLabel;html=1;align=center;verticalAlign=middle;resizable=0;points=[];fontSize=14;" parent="128" vertex="1" connectable="0">
                    <mxGeometry x="-0.4587" y="3" relative="1" as="geometry">
                        <mxPoint as="offset"/>
                    </mxGeometry>
                </mxCell>
                <mxCell id="129" value="book" style="rhombus;whiteSpace=wrap;html=1;fontSize=14;" parent="1" vertex="1">
                    <mxGeometry x="785" y="712" width="62" height="56" as="geometry"/>
                </mxCell>
                <mxCell id="130" value="" style="endArrow=none;html=1;fontSize=12;shape=link;" parent="1" source="10" target="129" edge="1">
                    <mxGeometry width="50" height="50" relative="1" as="geometry">
                        <mxPoint x="769.9984030418236" y="338.0015969581749" as="sourcePoint"/>
                        <mxPoint x="843.7069798657712" y="434.34000000000003" as="targetPoint"/>
                    </mxGeometry>
                </mxCell>
                <mxCell id="177" value="1" style="edgeLabel;html=1;align=center;verticalAlign=middle;resizable=0;points=[];fontSize=14;" parent="130" vertex="1" connectable="0">
                    <mxGeometry x="-0.4569" y="2" relative="1" as="geometry">
                        <mxPoint as="offset"/>
                    </mxGeometry>
                </mxCell>
                <mxCell id="131" value="" style="endArrow=none;html=1;fontSize=12;shape=link;" parent="1" source="129" target="14" edge="1">
                    <mxGeometry width="50" height="50" relative="1" as="geometry">
                        <mxPoint x="769.9984030418236" y="338.0015969581749" as="sourcePoint"/>
                        <mxPoint x="843.7069798657712" y="434.34000000000003" as="targetPoint"/>
                    </mxGeometry>
                </mxCell>
                <mxCell id="178" value="m" style="edgeLabel;html=1;align=center;verticalAlign=middle;resizable=0;points=[];fontSize=14;" parent="131" vertex="1" connectable="0">
                    <mxGeometry x="-0.3619" y="2" relative="1" as="geometry">
                        <mxPoint x="15" y="1" as="offset"/>
                    </mxGeometry>
                </mxCell>
                <mxCell id="133" value="has" style="rhombus;whiteSpace=wrap;html=1;fontSize=14;" parent="1" vertex="1">
                    <mxGeometry x="1154" y="710" width="62" height="56" as="geometry"/>
                </mxCell>
                <mxCell id="134" value="" style="endArrow=none;html=1;fontSize=12;shape=link;" parent="1" source="133" target="123" edge="1">
                    <mxGeometry width="50" height="50" relative="1" as="geometry">
                        <mxPoint x="769.9984030418236" y="338.0015969581749" as="sourcePoint"/>
                        <mxPoint x="843.7069798657712" y="434.34000000000003" as="targetPoint"/>
                    </mxGeometry>
                </mxCell>
                <mxCell id="175" value="1" style="edgeLabel;html=1;align=center;verticalAlign=middle;resizable=0;points=[];fontSize=14;" parent="134" vertex="1" connectable="0">
                    <mxGeometry x="0.4545" relative="1" as="geometry">
                        <mxPoint as="offset"/>
                    </mxGeometry>
                </mxCell>
                <mxCell id="135" value="has" style="rhombus;whiteSpace=wrap;html=1;fontSize=14;" parent="1" vertex="1">
                    <mxGeometry x="1322" y="572" width="62" height="56" as="geometry"/>
                </mxCell>
                <mxCell id="136" value="has" style="rhombus;whiteSpace=wrap;html=1;fontSize=14;" parent="1" vertex="1">
                    <mxGeometry x="517" y="1115" width="62" height="56" as="geometry"/>
                </mxCell>
                <mxCell id="137" value="has" style="rhombus;whiteSpace=wrap;html=1;fontSize=14;" parent="1" vertex="1">
                    <mxGeometry x="705" y="1119" width="62" height="56" as="geometry"/>
                </mxCell>
                <mxCell id="138" value="has" style="rhombus;whiteSpace=wrap;html=1;fontSize=14;" parent="1" vertex="1">
                    <mxGeometry x="847" y="1167" width="62" height="56" as="geometry"/>
                </mxCell>
                <mxCell id="143" value="" style="endArrow=none;html=1;fontSize=12;shape=link;" parent="1" source="61" target="138" edge="1">
                    <mxGeometry width="50" height="50" relative="1" as="geometry">
                        <mxPoint x="904.641016062757" y="977.6757564437803" as="sourcePoint"/>
                        <mxPoint x="1003" y="976.6349206349207" as="targetPoint"/>
                    </mxGeometry>
                </mxCell>
                <mxCell id="169" value="1" style="edgeLabel;html=1;align=center;verticalAlign=middle;resizable=0;points=[];fontSize=14;" parent="143" vertex="1" connectable="0">
                    <mxGeometry x="-0.5123" y="1" relative="1" as="geometry">
                        <mxPoint as="offset"/>
                    </mxGeometry>
                </mxCell>
                <mxCell id="144" value="" style="endArrow=none;html=1;fontSize=12;shape=link;" parent="1" source="60" target="137" edge="1">
                    <mxGeometry width="50" height="50" relative="1" as="geometry">
                        <mxPoint x="914.641016062757" y="987.6757564437803" as="sourcePoint"/>
                        <mxPoint x="1013" y="986.6349206349207" as="targetPoint"/>
                    </mxGeometry>
                </mxCell>
                <mxCell id="170" value="1" style="edgeLabel;html=1;align=center;verticalAlign=middle;resizable=0;points=[];fontSize=14;" parent="144" vertex="1" connectable="0">
                    <mxGeometry x="-0.23" y="-3" relative="1" as="geometry">
                        <mxPoint as="offset"/>
                    </mxGeometry>
                </mxCell>
                <mxCell id="145" value="" style="endArrow=none;html=1;fontSize=12;shape=link;" parent="1" source="59" target="136" edge="1">
                    <mxGeometry width="50" height="50" relative="1" as="geometry">
                        <mxPoint x="924.641016062757" y="997.6757564437803" as="sourcePoint"/>
                        <mxPoint x="1023" y="996.6349206349207" as="targetPoint"/>
                    </mxGeometry>
                </mxCell>
                <mxCell id="171" value="1" style="edgeLabel;html=1;align=center;verticalAlign=middle;resizable=0;points=[];fontSize=14;" parent="145" vertex="1" connectable="0">
                    <mxGeometry x="-0.1421" y="-4" relative="1" as="geometry">
                        <mxPoint as="offset"/>
                    </mxGeometry>
                </mxCell>
                <mxCell id="146" value="work in" style="rhombus;whiteSpace=wrap;html=1;fontSize=14;" parent="1" vertex="1">
                    <mxGeometry x="901" y="1470" width="62" height="56" as="geometry"/>
                </mxCell>
                <mxCell id="147" value="work in" style="rhombus;whiteSpace=wrap;html=1;fontSize=14;" parent="1" vertex="1">
                    <mxGeometry x="225" y="1474" width="62" height="56" as="geometry"/>
                </mxCell>
                <mxCell id="148" value="work in" style="rhombus;whiteSpace=wrap;html=1;fontSize=14;" parent="1" vertex="1">
                    <mxGeometry x="404" y="1477" width="62" height="56" as="geometry"/>
                </mxCell>
                <mxCell id="149" value="work in" style="rhombus;whiteSpace=wrap;html=1;fontSize=14;" parent="1" vertex="1">
                    <mxGeometry x="568" y="1477" width="62" height="56" as="geometry"/>
                </mxCell>
                <mxCell id="150" value="work in" style="rhombus;whiteSpace=wrap;html=1;fontSize=14;" parent="1" vertex="1">
                    <mxGeometry x="729" y="1474" width="62" height="56" as="geometry"/>
                </mxCell>
                <mxCell id="151" value="" style="endArrow=none;html=1;fontSize=12;shape=link;" parent="1" source="146" target="63" edge="1">
                    <mxGeometry width="50" height="50" relative="1" as="geometry">
                        <mxPoint x="774.89592760181" y="1334" as="sourcePoint"/>
                        <mxPoint x="848.3300389023234" y="1163.169067395647" as="targetPoint"/>
                    </mxGeometry>
                </mxCell>
                <mxCell id="161" value="1" style="edgeLabel;html=1;align=center;verticalAlign=middle;resizable=0;points=[];fontSize=14;" parent="151" vertex="1" connectable="0">
                    <mxGeometry x="-0.4253" y="-4" relative="1" as="geometry">
                        <mxPoint as="offset"/>
                    </mxGeometry>
                </mxCell>
                <mxCell id="152" value="" style="endArrow=none;html=1;fontSize=12;shape=link;" parent="1" source="120" target="146" edge="1">
                    <mxGeometry width="50" height="50" relative="1" as="geometry">
                        <mxPoint x="784.89592760181" y="1344" as="sourcePoint"/>
                        <mxPoint x="858.3300389023234" y="1173.169067395647" as="targetPoint"/>
                    </mxGeometry>
                </mxCell>
                <mxCell id="162" value="m" style="edgeLabel;html=1;align=center;verticalAlign=middle;resizable=0;points=[];fontSize=14;" parent="152" vertex="1" connectable="0">
                    <mxGeometry x="-0.4063" y="-1" relative="1" as="geometry">
                        <mxPoint as="offset"/>
                    </mxGeometry>
                </mxCell>
                <mxCell id="153" value="" style="endArrow=none;html=1;fontSize=12;shape=link;" parent="1" source="150" target="61" edge="1">
                    <mxGeometry width="50" height="50" relative="1" as="geometry">
                        <mxPoint x="794.89592760181" y="1354" as="sourcePoint"/>
                        <mxPoint x="868.3300389023234" y="1183.169067395647" as="targetPoint"/>
                    </mxGeometry>
                </mxCell>
                <mxCell id="164" value="1" style="edgeLabel;html=1;align=center;verticalAlign=middle;resizable=0;points=[];fontSize=14;" parent="153" vertex="1" connectable="0">
                    <mxGeometry x="-0.3174" y="4" relative="1" as="geometry">
                        <mxPoint as="offset"/>
                    </mxGeometry>
                </mxCell>
                <mxCell id="154" value="" style="endArrow=none;html=1;fontSize=12;shape=link;" parent="1" source="121" target="150" edge="1">
                    <mxGeometry width="50" height="50" relative="1" as="geometry">
                        <mxPoint x="804.89592760181" y="1364" as="sourcePoint"/>
                        <mxPoint x="878.3300389023234" y="1193.169067395647" as="targetPoint"/>
                    </mxGeometry>
                </mxCell>
                <mxCell id="163" value="m" style="edgeLabel;html=1;align=center;verticalAlign=middle;resizable=0;points=[];fontSize=14;" parent="154" vertex="1" connectable="0">
                    <mxGeometry x="0.2753" y="-2" relative="1" as="geometry">
                        <mxPoint as="offset"/>
                    </mxGeometry>
                </mxCell>
                <mxCell id="155" value="m" style="endArrow=none;html=1;fontSize=12;shape=link;" parent="1" source="122" target="149" edge="1">
                    <mxGeometry width="50" height="50" relative="1" as="geometry">
                        <mxPoint x="814.89592760181" y="1374" as="sourcePoint"/>
                        <mxPoint x="888.3300389023234" y="1203.169067395647" as="targetPoint"/>
                    </mxGeometry>
                </mxCell>
                <mxCell id="156" value="" style="endArrow=none;html=1;fontSize=12;shape=link;" parent="1" source="149" target="60" edge="1">
                    <mxGeometry width="50" height="50" relative="1" as="geometry">
                        <mxPoint x="824.89592760181" y="1384" as="sourcePoint"/>
                        <mxPoint x="898.3300389023234" y="1213.169067395647" as="targetPoint"/>
                    </mxGeometry>
                </mxCell>
                <mxCell id="165" value="1" style="edgeLabel;html=1;align=center;verticalAlign=middle;resizable=0;points=[];fontSize=14;" parent="156" vertex="1" connectable="0">
                    <mxGeometry x="-0.4414" y="4" relative="1" as="geometry">
                        <mxPoint as="offset"/>
                    </mxGeometry>
                </mxCell>
                <mxCell id="157" value="m" style="endArrow=none;html=1;fontSize=12;shape=link;" parent="1" source="117" target="148" edge="1">
                    <mxGeometry width="50" height="50" relative="1" as="geometry">
                        <mxPoint x="834.89592760181" y="1394" as="sourcePoint"/>
                        <mxPoint x="908.3300389023234" y="1223.169067395647" as="targetPoint"/>
                    </mxGeometry>
                </mxCell>
                <mxCell id="158" value="" style="endArrow=none;html=1;fontSize=12;shape=link;" parent="1" source="148" target="59" edge="1">
                    <mxGeometry width="50" height="50" relative="1" as="geometry">
                        <mxPoint x="844.89592760181" y="1404" as="sourcePoint"/>
                        <mxPoint x="918.3300389023234" y="1233.169067395647" as="targetPoint"/>
                    </mxGeometry>
                </mxCell>
                <mxCell id="166" value="1" style="edgeLabel;html=1;align=center;verticalAlign=middle;resizable=0;points=[];fontSize=14;" parent="158" vertex="1" connectable="0">
                    <mxGeometry x="0.2719" y="-2" relative="1" as="geometry">
                        <mxPoint as="offset"/>
                    </mxGeometry>
                </mxCell>
                <mxCell id="159" value="" style="endArrow=none;html=1;fontSize=12;shape=link;" parent="1" source="116" target="147" edge="1">
                    <mxGeometry width="50" height="50" relative="1" as="geometry">
                        <mxPoint x="854.89592760181" y="1414" as="sourcePoint"/>
                        <mxPoint x="928.3300389023234" y="1243.169067395647" as="targetPoint"/>
                    </mxGeometry>
                </mxCell>
                <mxCell id="168" value="m" style="edgeLabel;html=1;align=center;verticalAlign=middle;resizable=0;points=[];fontSize=14;" parent="159" vertex="1" connectable="0">
                    <mxGeometry x="-0.1976" y="-3" relative="1" as="geometry">
                        <mxPoint as="offset"/>
                    </mxGeometry>
                </mxCell>
                <mxCell id="160" value="" style="endArrow=none;html=1;fontSize=12;shape=link;" parent="1" source="147" target="62" edge="1">
                    <mxGeometry width="50" height="50" relative="1" as="geometry">
                        <mxPoint x="864.89592760181" y="1424" as="sourcePoint"/>
                        <mxPoint x="938.3300389023234" y="1253.169067395647" as="targetPoint"/>
                    </mxGeometry>
                </mxCell>
                <mxCell id="167" value="1" style="edgeLabel;html=1;align=center;verticalAlign=middle;resizable=0;points=[];fontSize=14;" parent="160" vertex="1" connectable="0">
                    <mxGeometry x="0.3398" y="-3" relative="1" as="geometry">
                        <mxPoint as="offset"/>
                    </mxGeometry>
                </mxCell>
                <mxCell id="187" style="edgeStyle=none;html=1;fontSize=14;" parent="1" source="184" target="14" edge="1">
                    <mxGeometry relative="1" as="geometry">
                        <mxPoint x="1681" y="1073" as="sourcePoint"/>
                    </mxGeometry>
                </mxCell>
                <mxCell id="184" value="Radiation&amp;nbsp; Appoinment" style="whiteSpace=wrap;html=1;" parent="1" vertex="1">
                    <mxGeometry x="838" y="907" width="120" height="60" as="geometry"/>
                </mxCell>
                <mxCell id="188" style="edgeStyle=none;html=1;fontSize=14;" parent="1" source="185" target="14" edge="1">
                    <mxGeometry relative="1" as="geometry"/>
                </mxCell>
                <mxCell id="185" value="Medical Analysis Appoinment" style="whiteSpace=wrap;html=1;" parent="1" vertex="1">
                    <mxGeometry x="1014" y="1012" width="120" height="60" as="geometry"/>
                </mxCell>
                <mxCell id="189" style="edgeStyle=none;html=1;fontSize=14;" parent="1" source="186" target="14" edge="1">
                    <mxGeometry relative="1" as="geometry"/>
                </mxCell>
                <mxCell id="186" value="ClincAppoinment" style="whiteSpace=wrap;html=1;" parent="1" vertex="1">
                    <mxGeometry x="532" y="921" width="120" height="60" as="geometry"/>
                </mxCell>
                <mxCell id="190" value="Prescription Item" style="whiteSpace=wrap;html=1;" parent="1" vertex="1">
                    <mxGeometry x="150" y="958" width="120" height="60" as="geometry"/>
                </mxCell>
                <mxCell id="191" value="has" style="rhombus;whiteSpace=wrap;html=1;fontSize=14;" parent="1" vertex="1">
                    <mxGeometry x="365" y="945" width="98" height="80" as="geometry"/>
                </mxCell>
                <mxCell id="192" value="" style="endArrow=none;html=1;fontSize=12;shape=link;" parent="1" source="191" target="186" edge="1">
                    <mxGeometry width="50" height="50" relative="1" as="geometry">
                        <mxPoint x="719.641016062757" y="1220.6757564437803" as="sourcePoint"/>
                        <mxPoint x="817.9999999999995" y="1219.6349206349207" as="targetPoint"/>
                    </mxGeometry>
                </mxCell>
                <mxCell id="193" value="1" style="edgeLabel;html=1;align=center;verticalAlign=middle;resizable=0;points=[];fontSize=14;" parent="192" vertex="1" connectable="0">
                    <mxGeometry x="-0.3619" y="2" relative="1" as="geometry">
                        <mxPoint x="15" y="1" as="offset"/>
                    </mxGeometry>
                </mxCell>
                <mxCell id="194" value="" style="endArrow=none;html=1;fontSize=12;" parent="1" source="190" target="191" edge="1">
                    <mxGeometry width="50" height="50" relative="1" as="geometry">
                        <mxPoint x="539.3412784398702" y="937.0465872156014" as="sourcePoint"/>
                        <mxPoint x="618.40625" y="1020" as="targetPoint"/>
                    </mxGeometry>
                </mxCell>
                <mxCell id="195" value="m" style="edgeLabel;html=1;align=center;verticalAlign=middle;resizable=0;points=[];fontSize=14;" parent="194" vertex="1" connectable="0">
                    <mxGeometry x="-0.3619" y="2" relative="1" as="geometry">
                        <mxPoint x="15" y="1" as="offset"/>
                    </mxGeometry>
                </mxCell>
                <mxCell id="196" value="want" style="rhombus;whiteSpace=wrap;html=1;fontSize=14;" parent="1" vertex="1">
                    <mxGeometry x="886" y="1021" width="62" height="56" as="geometry"/>
                </mxCell>
                <mxCell id="197" value="want" style="rhombus;whiteSpace=wrap;html=1;fontSize=14;" parent="1" vertex="1">
                    <mxGeometry x="729" y="915" width="62" height="56" as="geometry"/>
                </mxCell>
                <mxCell id="198" value="" style="endArrow=none;html=1;fontSize=12;shape=link;" parent="1" source="186" target="196" edge="1">
                    <mxGeometry width="50" height="50" relative="1" as="geometry">
                        <mxPoint x="559" y="1223.0526315789475" as="sourcePoint"/>
                        <mxPoint x="658.5326066876041" y="1221.4810641049326" as="targetPoint"/>
                    </mxGeometry>
                </mxCell>
                <mxCell id="199" value="1" style="edgeLabel;html=1;align=center;verticalAlign=middle;resizable=0;points=[];fontSize=14;" parent="198" vertex="1" connectable="0">
                    <mxGeometry x="-0.4569" y="2" relative="1" as="geometry">
                        <mxPoint as="offset"/>
                    </mxGeometry>
                </mxCell>
                <mxCell id="202" value="" style="endArrow=none;html=1;fontSize=12;" parent="1" source="185" target="196" edge="1">
                    <mxGeometry width="50" height="50" relative="1" as="geometry">
                        <mxPoint x="652.9999999999995" y="991.9729729729731" as="sourcePoint"/>
                        <mxPoint x="711.1177017911145" y="990.0095371016516" as="targetPoint"/>
                    </mxGeometry>
                </mxCell>
                <mxCell id="203" value="m" style="edgeLabel;html=1;align=center;verticalAlign=middle;resizable=0;points=[];fontSize=14;" parent="202" vertex="1" connectable="0">
                    <mxGeometry x="-0.4569" y="2" relative="1" as="geometry">
                        <mxPoint x="-5" y="-11" as="offset"/>
                    </mxGeometry>
                </mxCell>
                <mxCell id="204" value="" style="endArrow=none;html=1;fontSize=12;shape=link;" parent="1" source="186" target="197" edge="1">
                    <mxGeometry width="50" height="50" relative="1" as="geometry">
                        <mxPoint x="653" y="991.9729729729729" as="sourcePoint"/>
                        <mxPoint x="711.1177017911141" y="990.0095371016516" as="targetPoint"/>
                    </mxGeometry>
                </mxCell>
                <mxCell id="205" value="1" style="edgeLabel;html=1;align=center;verticalAlign=middle;resizable=0;points=[];fontSize=14;" parent="204" vertex="1" connectable="0">
                    <mxGeometry x="-0.4569" y="2" relative="1" as="geometry">
                        <mxPoint as="offset"/>
                    </mxGeometry>
                </mxCell>
                <mxCell id="206" value="" style="endArrow=none;html=1;fontSize=12;" parent="1" source="184" target="197" edge="1">
                    <mxGeometry width="50" height="50" relative="1" as="geometry">
                        <mxPoint x="810.4615384615386" y="1024" as="sourcePoint"/>
                        <mxPoint x="760.8990581126714" y="999.0266571885554" as="targetPoint"/>
                    </mxGeometry>
                </mxCell>
                <mxCell id="207" value="m" style="edgeLabel;html=1;align=center;verticalAlign=middle;resizable=0;points=[];fontSize=14;" parent="206" vertex="1" connectable="0">
                    <mxGeometry x="-0.4569" y="2" relative="1" as="geometry">
                        <mxPoint x="-5" y="-2" as="offset"/>
                    </mxGeometry>
                </mxCell>
                <mxCell id="208" value="" style="endArrow=none;html=1;fontSize=12;shape=link;" parent="1" source="17" target="135" edge="1">
                    <mxGeometry width="50" height="50" relative="1" as="geometry">
                        <mxPoint x="1122" y="379" as="sourcePoint"/>
                        <mxPoint x="1346" y="577" as="targetPoint"/>
                    </mxGeometry>
                </mxCell>
                <mxCell id="209" value="m" style="edgeLabel;html=1;align=center;verticalAlign=middle;resizable=0;points=[];fontSize=14;" parent="208" vertex="1" connectable="0">
                    <mxGeometry x="-0.4569" y="2" relative="1" as="geometry">
                        <mxPoint x="-5" y="-2" as="offset"/>
                    </mxGeometry>
                </mxCell>
                <mxCell id="210" value="" style="endArrow=none;html=1;fontSize=12;shape=link;" parent="1" source="135" target="123" edge="1">
                    <mxGeometry width="50" height="50" relative="1" as="geometry">
                        <mxPoint x="1132" y="389" as="sourcePoint"/>
                        <mxPoint x="999.9099678456591" y="402.2090032154341" as="targetPoint"/>
                    </mxGeometry>
                </mxCell>
                <mxCell id="211" value="1" style="edgeLabel;html=1;align=center;verticalAlign=middle;resizable=0;points=[];fontSize=14;" parent="210" vertex="1" connectable="0">
                    <mxGeometry x="-0.4569" y="2" relative="1" as="geometry">
                        <mxPoint x="-2" y="16" as="offset"/>
                    </mxGeometry>
                </mxCell>
                <mxCell id="213" value="" style="endArrow=none;html=1;fontSize=12;" parent="1" source="138" target="185" edge="1">
                    <mxGeometry width="50" height="50" relative="1" as="geometry">
                        <mxPoint x="1075" y="748" as="sourcePoint"/>
                        <mxPoint x="1164" y="748" as="targetPoint"/>
                    </mxGeometry>
                </mxCell>
                <mxCell id="214" value="m" style="edgeLabel;html=1;align=center;verticalAlign=middle;resizable=0;points=[];fontSize=14;" parent="213" vertex="1" connectable="0">
                    <mxGeometry x="-0.618" y="-1" relative="1" as="geometry">
                        <mxPoint as="offset"/>
                    </mxGeometry>
                </mxCell>
                <mxCell id="215" value="" style="endArrow=none;html=1;fontSize=12;" parent="1" source="137" target="184" edge="1">
                    <mxGeometry width="50" height="50" relative="1" as="geometry">
                        <mxPoint x="1085" y="758" as="sourcePoint"/>
                        <mxPoint x="1174" y="758" as="targetPoint"/>
                    </mxGeometry>
                </mxCell>
                <mxCell id="216" value="m" style="edgeLabel;html=1;align=center;verticalAlign=middle;resizable=0;points=[];fontSize=14;" parent="215" vertex="1" connectable="0">
                    <mxGeometry x="-0.618" y="-1" relative="1" as="geometry">
                        <mxPoint as="offset"/>
                    </mxGeometry>
                </mxCell>
                <mxCell id="217" value="" style="endArrow=none;html=1;fontSize=12;" parent="1" source="136" target="186" edge="1">
                    <mxGeometry width="50" height="50" relative="1" as="geometry">
                        <mxPoint x="1095" y="768" as="sourcePoint"/>
                        <mxPoint x="1184" y="768" as="targetPoint"/>
                    </mxGeometry>
                </mxCell>
                <mxCell id="218" value="m" style="edgeLabel;html=1;align=center;verticalAlign=middle;resizable=0;points=[];fontSize=14;" parent="217" vertex="1" connectable="0">
                    <mxGeometry x="-0.618" y="-1" relative="1" as="geometry">
                        <mxPoint as="offset"/>
                    </mxGeometry>
                </mxCell>
            </root>
        </mxGraphModel>
    </diagram>
</mxfile>